<?xml version="1.0" encoding="iso-8859-1"?>
<!-- Generator: Adobe Illustrator 18.1.1, SVG Export Plug-In . SVG Version: 6.00 Build 0)  -->
<svg version="1.1" id="Capa_1" xmlns="http://www.w3.org/2000/svg" xmlns:xlink="http://www.w3.org/1999/xlink" x="0px" y="0px"
	 viewBox="0 0 39.932 39.932" style="enable-background:new 0 0 39.932 39.932;" xml:space="preserve">
<g>
	<g>
		<path style="fill:#010002;" d="M38.138,0.306H6.574c-0.988,0-1.793,0.805-1.793,1.792v3.016H1.793C0.805,5.114,0,5.919,0,6.907
			v24.012c0,0.987,0.805,1.793,1.793,1.793h7.608l-3.003,5.113c-0.286,0.489-0.322,0.928-0.109,1.299
			c0.18,0.312,0.51,0.502,0.885,0.502c0.239,0,0.49-0.076,0.766-0.231l11.878-6.683h13.541c0.987,0,1.793-0.806,1.793-1.793v-3.017
			h2.987c0.988,0,1.793-0.804,1.793-1.792V2.098C39.931,1.111,39.126,0.306,38.138,0.306z M33.357,30.919H19.581
			c-0.152,0-0.304,0.039-0.439,0.115l-9.971,5.608l2.569-4.376c0.162-0.278,0.163-0.622,0.004-0.896
			c-0.158-0.279-0.457-0.453-0.777-0.453H1.793L1.794,6.906h31.562L33.357,30.919L33.357,30.919z M38.139,26.11h-2.987V6.907
			c0-0.988-0.806-1.793-1.793-1.793H6.576V2.098h31.563V26.11z"/>
		<path style="fill:#010002;" d="M8.76,21.019c1.497,0,2.716-1.22,2.716-2.716c0-1.499-1.219-2.717-2.716-2.717
			c-1.498,0-2.717,1.219-2.717,2.717C6.043,19.799,7.262,21.019,8.76,21.019z M8.76,16.837c0.809,0,1.466,0.658,1.466,1.466
			c0,0.81-0.657,1.467-1.466,1.467s-1.467-0.657-1.467-1.467C7.293,17.495,7.951,16.837,8.76,16.837z"/>
		<path style="fill:#010002;" d="M17.425,21.019c1.497,0,2.716-1.22,2.716-2.716c0-1.499-1.219-2.717-2.716-2.717
			c-1.498,0-2.717,1.219-2.717,2.717C14.708,19.799,15.927,21.019,17.425,21.019z M17.425,16.837c0.808,0,1.466,0.658,1.466,1.466
			c0,0.81-0.657,1.467-1.466,1.467s-1.467-0.657-1.467-1.467C15.958,17.495,16.616,16.837,17.425,16.837z"/>
		<path style="fill:#010002;" d="M26.09,21.019c1.497,0,2.716-1.22,2.716-2.716c0-1.499-1.219-2.717-2.716-2.717
			c-1.498,0-2.717,1.219-2.717,2.717C23.373,19.799,24.592,21.019,26.09,21.019z M26.09,16.837c0.81,0,1.466,0.658,1.466,1.466
			c0,0.81-0.656,1.467-1.466,1.467s-1.467-0.657-1.467-1.467C24.623,17.495,25.28,16.837,26.09,16.837z"/>
	</g>
</g>
<g>
</g>
<g>
</g>
<g>
</g>
<g>
</g>
<g>
</g>
<g>
</g>
<g>
</g>
<g>
</g>
<g>
</g>
<g>
</g>
<g>
</g>
<g>
</g>
<g>
</g>
<g>
</g>
<g>
</g>
</svg>
